---
title: Agender Flag
sources:
 - name: CyberPon3
   link: https://twitter.com/CyberPon3
 - name: Twemoji
   link: https://twemoji.twitter.com/
license: CC-BY-NC-4.0
---
<svg xmlns="http://www.w3.org/2000/svg" viewBox="0 0 36 36">
    <g transform="rotate(0)" clip-path="url(#stripesClip)"><rect x="0" y="5" width="36" height="3.814" fill="#000000"></rect><rect x="0" y="8.714" width="36" height="3.814" fill="#bcc5c6"></rect><rect x="0" y="12.429" width="36" height="3.814" fill="#ffffff"></rect><rect x="0" y="16.143" width="36" height="3.814" fill="#b5f582"></rect><rect x="0" y="19.857" width="36" height="3.814" fill="#ffffff"></rect><rect x="0" y="23.571" width="36" height="3.814" fill="#bcc5c6"></rect><rect x="0" y="27.286" width="36" height="3.814" fill="#000000"></rect></g>
<defs><clipPath id="stripesClip"><path id="stripes" fill="#EEE" d="M36 27c0 2.209-1.791 4-4 4H4c-2.209 0-4-1.791-4-4V9c0-2.209 1.791-4 4-4h28c2.209 0 4 1.791 4 4v18z" transform="rotate(0)"></path></clipPath></defs></svg>