<svg version="1.1" xmlns="http://www.w3.org/2000/svg" viewBox="0 0 128 128">
    <g transform="rotate(-45)" clip-path="url(#stripesClip)"><rect x="-29.274" y="17.734" width="58.548" height="24.358" fill="#000000"></rect><rect x="-29.274" y="41.993" width="58.548" height="24.358" fill="#670066"></rect><rect x="-29.274" y="66.251" width="58.548" height="24.358" fill="#959595"></rect><rect x="-29.274" y="90.51" width="58.548" height="24.358" fill="#ffffff"></rect><rect x="-29.274" y="114.768" width="58.548" height="24.358" fill="#a8d377"></rect><rect x="-29.274" y="139.027" width="58.548" height="24.358" fill="#3ca542"></rect></g>
    <path style="fill:#FFFFFF;opacity:0.65;" d="M69.43,36.25C81.59,49.5,103.65,74.5,103.65,74.5c2.86,2.61,6.79,9.34,4.22,11.66c-2.74,2.48-9.12-2.75-11.98-5.36L49.22,36.89c-2.85-2.61-12.39-11.06-10.53-17.01C42.2,8.65,55.89,21.49,69.43,36.25z"></path>
<defs><clipPath id="stripesClip"><path id="stripes" style="fill:#F44336;" d="M74.06,115.46c11.38,11.38,30.01,11.38,41.4,0l0,0c11.38-11.38,11.38-30.01,0-41.4L84.7,43.3L43.3,84.7L74.06,115.46zM84.7,43.3L53.94,12.54c-11.38-11.38-30.01-11.38-41.4,0l0,0c-11.38,11.38-11.38,30.01,0,41.4L43.3,84.7L84.7,43.3z" transform="rotate(45)"></path></clipPath></defs></svg>