---
title: Bisexual Heart
sources:
 - name: CyberPon3
   link: https://twitter.com/CyberPon3
 - name: Twemoji
   link: https://twemoji.twitter.com/
license: CC-BY-NC-4.0
---
<svg xmlns="http://www.w3.org/2000/svg" viewBox="0 0 36 36">
    <g transform="rotate(0)" clip-path="url(#stripesClip)"><rect x="0.115" y="1.965" width="35.77" height="6.514" fill="#d70170"></rect><rect x="0.115" y="8.379" width="35.77" height="6.514" fill="#d70170"></rect><rect x="0.115" y="14.793" width="35.77" height="6.514" fill="#734f94"></rect><rect x="0.115" y="21.206" width="35.77" height="6.514" fill="#0039a7"></rect><rect x="0.115" y="27.62" width="35.77" height="6.514" fill="#0039a7"></rect></g>
<defs><clipPath id="stripesClip"><path id="stripes" fill="#DD2E44" d="M35.885 11.833c0-5.45-4.418-9.868-9.867-9.868-3.308 0-6.227 1.633-8.018 4.129-1.791-2.496-4.71-4.129-8.017-4.129-5.45 0-9.868 4.417-9.868 9.868 0 .772.098 1.52.266 2.241C1.751 22.587 11.216 31.568 18 34.034c6.783-2.466 16.249-11.447 17.617-19.959.17-.721.268-1.469.268-2.242z" transform="rotate(0)"></path></clipPath></defs></svg>