<svg xmlns="http://www.w3.org/2000/svg" viewBox="0 0 36 36">
    <g transform="rotate(0)" clip-path="url(#stripesClip)"><rect x="0.115" y="1.965" width="35.77" height="8.117" fill="#fff433"></rect><rect x="0.115" y="9.982" width="35.77" height="8.117" fill="#ffffff"></rect><rect x="0.115" y="18" width="35.77" height="8.117" fill="#9b59d0"></rect><rect x="0.115" y="26.017" width="35.77" height="8.117" fill="#2d2d2d"></rect></g>
<defs><clipPath id="stripesClip"><path id="stripes" fill="#DD2E44" d="M35.885 11.833c0-5.45-4.418-9.868-9.867-9.868-3.308 0-6.227 1.633-8.018 4.129-1.791-2.496-4.71-4.129-8.017-4.129-5.45 0-9.868 4.417-9.868 9.868 0 .772.098 1.52.266 2.241C1.751 22.587 11.216 31.568 18 34.034c6.783-2.466 16.249-11.447 17.617-19.959.17-.721.268-1.469.268-2.242z" transform="rotate(0)"></path></clipPath></defs></svg>