<svg xmlns="http://www.w3.org/2000/svg" viewBox="0 0 36 36">
    <g transform="rotate(0)" clip-path="url(#stripesClip)"><rect x="6" y="1" width="24" height="8.60" fill="#fff433"></rect><rect x="6" y="9.50" width="24" height="8.60" fill="#ffffff"></rect><rect x="6" y="18" width="24" height="8.60" fill="#9b59d0"></rect><rect x="6" y="26.50" width="24" height="8.60" fill="#2d2d2d"></rect></g>
    <path fill="rgba(50,50,50,0.5)" d="M23.142 3.403c2.908 3.519 5.108 9.018 5.108 14.453 0 9.009-5.672 14.393-11.344 14.393-4.541 0-9.075-3.459-10.705-9.459C7.261 30.484 12.623 35 18 35c6 0 12-5.611 12-15 0-6.531-3.086-13.161-6.858-16.597z"></path>
<defs><clipPath id="stripesClip"><path id="stripes" fill="#F7DECE" d="M23.142 3.403C21.492 1.899 19.712 1 18 1 12.375 1 6 10.611 6 20c0 .975.079 1.899.202 2.791C7.261 30.484 12.623 35 18 35c6 0 12-5.611 12-15 0-6.531-3.086-13.161-6.858-16.597z" transform="rotate(0)"></path></clipPath></defs></svg>