<svg xmlns="http://www.w3.org/2000/svg" viewBox="0 0 36 36">
    <g transform="rotate(-45)" clip-path="url(#stripesClip)"><rect x="-13.569" y="5.558" width="33.467" height="11.256" fill="#b67edc"></rect><rect x="-13.569" y="16.714" width="33.467" height="11.256" fill="#ffffff"></rect><rect x="-13.569" y="27.869" width="33.467" height="11.256" fill="#4b8124"></rect></g>
<defs><clipPath id="stripesClip"><path id="stripes" fill="#DD2E44" d="M35.885 11.833c0-5.45-4.418-9.868-9.867-9.868-3.308 0-6.227 1.633-8.018 4.129-1.791-2.496-4.71-4.129-8.017-4.129-5.45 0-9.868 4.417-9.868 9.868 0 .772.098 1.52.266 2.241C1.751 22.587 11.216 31.568 18 34.034c6.783-2.466 16.249-11.447 17.617-19.959.17-.721.268-1.469.268-2.242z" transform="rotate(45)"></path></clipPath></defs></svg>